<?xml version="1.0" encoding="UTF-8" standalone="no"?>
<!DOCTYPE svg PUBLIC "-//W3C//DTD SVG 1.1//EN" "http://www.w3.org/Graphics/SVG/1.1/DTD/svg11.dtd">
<svg xmlns:xl="http://www.w3.org/1999/xlink" xmlns="http://www.w3.org/2000/svg" xmlns:dc="http://purl.org/dc/elements/1.1/" version="1.1" viewBox="0 0 24 24" width="24" height="24">
  <defs/>
  <g id="Canvas_1" fill="none" stroke-dasharray="none" fill-opacity="1" stroke="none" stroke-opacity="1">
    <title>Canvas 1</title>
    <g id="Canvas_1_Layer_1">
      <title>Layer 1</title>
      <g id="Group_2">
        <title>Canvas_1</title>
        <g id="Group_3">
          <title>Canvas_1_Layer_1</title>
          <g id="Group_4">
            <title>Group_2</title>
            <g id="Group_5">
              <title>Group_3</title>
              <g id="Group_6">
                <title>Group_4</title>
                <g id="Group_7">
                  <title>Graphic_5</title>
                  <g id="Graphic_8">
                    <path d="M 13.955578 .4263687 C 12.928127 .1470838 11.407567 0 9.394234 0 L 5.266 0 L 5.266 24 L 8.898232 24 L 8.898232 14.21229 L 10.592938 14.21229 C 13.094067 14.21229 15.08157 13.586414 16.555383 12.303687 C 18.028993 11.021162 18.766 9.291084 18.766 7.097967 C 18.766134 5.049922 18.075674 3.3612068 16.695493 2.0164023 C 15.906558 1.2406928 14.993186 .7056536 13.955578 .4263687 Z M 9.718041 4.501408 C 10.303167 4.501408 10.777442 4.9741006 10.777442 5.557274 C 10.777442 6.140447 10.303167 6.61314 9.718041 6.61314 C 9.132915 6.61314 8.65864 6.140447 8.65864 5.557274 C 8.65864 4.9741006 9.132915 4.501408 9.718041 4.501408 Z M 9.718041 9.853341 C 9.132915 9.853341 8.65864 9.380648 8.65864 8.797475 C 8.65864 8.214302 9.132915 7.741609 9.718041 7.741609 C 10.3031 7.741609 10.777442 8.214302 10.777442 8.797475 C 10.777442 9.380648 10.3031 9.853341 9.718041 9.853341 Z M 11.992357 10.59647 L 11.992357 3.699017 C 14.212054 4.0897207 15.289886 5.0733185 15.289886 7.059084 C 15.289886 9.149497 14.212054 10.216425 11.992357 10.59647 Z" fill="#002f6f"/>
                  </g>
                </g>
              </g>
            </g>
          </g>
        </g>
      </g>
    </g>
  </g>
</svg>
