<?xml version="1.0" encoding="UTF-8" standalone="no"?>
<!DOCTYPE svg PUBLIC "-//W3C//DTD SVG 1.1//EN" "http://www.w3.org/Graphics/SVG/1.1/DTD/svg11.dtd">
<svg xmlns:xl="http://www.w3.org/1999/xlink" xmlns="http://www.w3.org/2000/svg" xmlns:dc="http://purl.org/dc/elements/1.1/" version="1.1" viewBox="0 0 24 24" width="24" height="24">
  <defs/>
  <g id="Canvas_1" fill="none" stroke-dasharray="none" fill-opacity="1" stroke="none" stroke-opacity="1">
    <title>Canvas 1</title>
    <g id="Canvas_1_Layer_1">
      <title>Layer 1</title>
      <g id="Group_2">
        <title>Canvas_1</title>
        <g id="Group_3">
          <title>Canvas_1_Layer_1</title>
          <g id="Group_4">
            <title>Group_2</title>
            <g id="Group_5">
              <title>Group_3</title>
              <g id="Group_6">
                <title>Group_4</title>
                <g id="Group_7">
                  <title>Group_5</title>
                  <g id="Group_8">
                    <title>Group_6</title>
                    <g id="Group_9">
                      <title>Group_7</title>
                      <g id="Group_10">
                        <title>Graphic_8</title>
                        <g id="Graphic_11">
                          <path d="M 13.934878 .4263687 C 12.909917 .1470838 11.393042 0 9.384588 0 L 5.266358 0 L 5.266358 24 L 8.889788 24 L 8.889788 14.21229 L 10.580387 14.21229 C 13.075454 14.21229 15.058142 13.586413 16.528382 12.303687 C 17.99842 11.021162 18.733642 9.291084 18.733642 7.0979665 C 18.733776 5.049922 18.044989 3.3612067 16.668152 2.0164022 C 15.88113 1.2406927 14.969971 .7056536 13.934878 .4263687 Z M 9.70761 4.501408 C 10.291318 4.501408 10.764444 4.9741006 10.764444 5.557274 C 10.764444 6.140447 10.291318 6.61314 9.70761 6.61314 C 9.123902 6.61314 8.650776 6.140447 8.650776 5.557274 C 8.650776 4.9741006 9.123902 4.501408 9.70761 4.501408 Z M 9.70761 9.853341 C 9.123902 9.853341 8.650776 9.380648 8.650776 8.797475 C 8.650776 8.214302 9.123902 7.741609 9.70761 7.741609 C 10.291251 7.741609 10.764444 8.214302 10.764444 8.797475 C 10.764444 9.380648 10.291251 9.853341 9.70761 9.853341 Z M 11.976414 10.596469 L 11.976414 3.6990168 C 14.190733 4.0897207 15.265952 5.0733184 15.265952 7.059084 C 15.265952 9.149497 14.190733 10.216425 11.976414 10.596469 Z" fill="black"/>
                        </g>
                      </g>
                    </g>
                  </g>
                </g>
              </g>
            </g>
          </g>
        </g>
      </g>
    </g>
  </g>
</svg>
